# xmcd CD database file
#
# Track frame offsets:
#	150
#	14151
#	33382
#	60693
#	75212
#	113946
#	137207
#	165220
#	195134
#	222737
#	235607
#
# Disc length: 3377 seconds
#
# Revision: 0
# Processed by: cddbd v1.5.2PL0 Copyright (c) Steve Scherf et al.
# Submitted via: CDex 1.51
#
DISCID=8a0d2f0b
DTITLE=Mauro Ottolni - he sky above Braddock
DYEAR=2010
DGENRE=Jazz
TTITLE0=Carnegie's soul in rust's Paradise
TTITLE1=Working man blues
TTITLE2=Mayor John 15104
TTITLE3=Lunar rhapsody
TTITLE4=The wonderful fable of Vicki Vrgo
TTITLE5=Pennsylvania 6-5000
TTITLE6=Crisis program
TTITLE7=Oclupaca
TTITLE8=Strawberry mango
TTITLE9=The funeral of Vocelli Pizza
TTITLE10=Sunrise serenade
EXTD=YEAR: 2010
EXTT0=
EXTT1=
EXTT2=
EXTT3=
EXTT4=
EXTT5=
EXTT6=
EXTT7=
EXTT8=
EXTT9=
EXTT10=
PLAYORDER=
